name ./resultDataOpenSim/trcMotMarkerGrf/sub10/grf-04-05.mot
datacolumns 19
datarows 12
range 1.47600000 1.52000000
endheader

                time	     ground_force_vx	     ground_force_vy	     ground_force_vz	     ground_force_px	     ground_force_py	     ground_force_pz	   l_ground_force_vx	   l_ground_force_vy	   l_ground_force_vz	   l_ground_force_px	   l_ground_force_py	   l_ground_force_pz	     ground_torque_x	     ground_torque_y	     ground_torque_z	   l_ground_torque_x	   l_ground_torque_y	   l_ground_torque_z	
          1.47600000	        -41.99070325	        460.57432840	        -25.00679036	          0.90700670	          0.00000000	         -0.00262787	          0.00000000	          0.00000000	          0.00000000	          0.00000000	          0.00000000	          0.00000000	          0.00000000	          2.99992631	          0.00000000	          0.00000000	          0.00000000	          0.00000000	
          1.48000000	        -40.00738430	        452.52114001	        -23.75747986	          0.90874288	          0.00000000	         -0.00279402	          0.00000000	          0.00000000	          0.00000000	          0.00000000	          0.00000000	          0.00000000	          0.00000000	          3.03580234	          0.00000000	          0.00000000	          0.00000000	          0.00000000	
          1.48400000	        -37.26469613	        445.14773836	        -22.17039919	          0.91035057	          0.00000000	         -0.00298106	          0.00000000	          0.00000000	          0.00000000	          0.00000000	          0.00000000	          0.00000000	          0.00000000	          3.07750304	          0.00000000	          0.00000000	          0.00000000	          0.00000000	
          1.48800000	        -33.94786729	        438.45768136	        -20.35452368	          0.91184180	          0.00000000	         -0.00318593	          0.00000000	          0.00000000	          0.00000000	          0.00000000	          0.00000000	          0.00000000	          0.00000000	          3.12504130	          0.00000000	          0.00000000	          0.00000000	          0.00000000	
          1.49200000	        -30.41906746	        432.42110686	        -18.48291386	          0.91325086	          0.00000000	         -0.00340087	          0.00000000	          0.00000000	          0.00000000	          0.00000000	          0.00000000	          0.00000000	          0.00000000	          3.17644066	          0.00000000	          0.00000000	          0.00000000	          0.00000000	
          1.49600000	        -27.11351215	        426.99691374	        -16.75234202	          0.91465022	          0.00000000	         -0.00361417	          0.00000000	          0.00000000	          0.00000000	          0.00000000	          0.00000000	          0.00000000	          0.00000000	          3.22880286	          0.00000000	          0.00000000	          0.00000000	          0.00000000	
          1.50000000	        -24.41679428	        422.14901105	        -15.33488348	          0.91612276	          0.00000000	         -0.00381604	          0.00000000	          0.00000000	          0.00000000	          0.00000000	          0.00000000	          0.00000000	          0.00000000	          3.27966284	          0.00000000	          0.00000000	          0.00000000	          0.00000000	
          1.50400000	        -22.55879617	        417.85009861	        -14.33666745	          0.91772011	          0.00000000	         -0.00400277	          0.00000000	          0.00000000	          0.00000000	          0.00000000	          0.00000000	          0.00000000	          0.00000000	          3.32776568	          0.00000000	          0.00000000	          0.00000000	          0.00000000	
          1.50800000	        -21.55697853	        414.07647236	        -13.77555208	          0.91944786	          0.00000000	         -0.00416882	          0.00000000	          0.00000000	          0.00000000	          0.00000000	          0.00000000	          0.00000000	          0.00000000	          3.37298058	          0.00000000	          0.00000000	          0.00000000	          0.00000000	
          1.51200000	        -21.22036335	        410.80330245	        -13.58363210	          0.92126284	          0.00000000	         -0.00431619	          0.00000000	          0.00000000	          0.00000000	          0.00000000	          0.00000000	          0.00000000	          0.00000000	          3.41575468	          0.00000000	          0.00000000	          0.00000000	          0.00000000	
          1.51600000	        -21.20781535	        408.00987907	        -13.62796785	          0.92309782	          0.00000000	         -0.00444712	          0.00000000	          0.00000000	          0.00000000	          0.00000000	          0.00000000	          0.00000000	          0.00000000	          3.45671245	          0.00000000	          0.00000000	          0.00000000	          0.00000000	
          1.52000000	        -21.12517185	        405.68964920	        -13.73820542	          0.92487483	          0.00000000	         -0.00456094	          0.00000000	          0.00000000	          0.00000000	          0.00000000	          0.00000000	          0.00000000	          0.00000000	          3.49663078	          0.00000000	          0.00000000	          0.00000000	          0.00000000	
